#!OML:ASF I:\golf\golf\golf 2\Subject 1\2002-09-07\Subject1.ASF
:FULLY-SPECIFIED
:DEGREES
180
root 1.11034 17.9254 -6.9468 13.9725 0.934645 -1.52212
lowerback 4.07681 1.50945 -5.4689
upperback 5.89913 1.83714 3.89135
thorax 3.55732 0.613415 7.13588
lowerneck -17.4238 0.268759 0.0192117
upperneck 38.6295 3.21328 -6.63844
head 17.2006 0.404399 -2.37692
rclavicle -5.1684e-015 3.97569e-015
rhumerus -17.5746 6.28753 -82.2434
rradius 30.7647
rwrist -10.1015
rhand -26.0079 12.5396
rfingers 7.12502
rthumb 0.538084 -17.4395
lclavicle -5.1684e-015 3.97569e-015
lhumerus -25.9439 -34.0354 95.4701
lradius 39.0305
lwrist -9.00825
lhand -10.8316 18.7677
lfingers 7.12502
lthumb 15.1827 48.1907
rfemur -37.9583 -7.91609 22.0182
rtibia 28.9273
rfoot -0.682117 -9.58245
rtoes 3.11709
lfemur -11.2117 3.04046 -17.9708
ltibia 27.9783
lfoot -16.4522 -0.528359
ltoes -16.8654
181
root 1.07076 17.9326 -6.88955 13.9805 1.17499 -1.59852
lowerback 4.30644 1.51052 -5.46397
upperback 6.05782 1.82403 4.10732
thorax 3.59371 0.595941 7.36271
lowerneck -17.1207 0.192479 -0.103943
upperneck 38.3631 3.15435 -6.73632
head 16.9759 0.358558 -2.39422
rclavicle -7.15625e-015 -6.36111e-015
rhumerus -17.1333 6.30533 -82.0233
rradius 30.7384
rwrist -10.102
rhand -26.5776 13.1261
rfingers 7.12502
rthumb -0.0121174 -16.8537
lclavicle -7.15625e-015 -6.36111e-015
lhumerus -25.7869 -35.3935 95.9208
lradius 39.2179
lwrist -8.99423
lhand -11.2156 18.4377
lfingers 7.12502
lthumb 14.8128 47.8882
rfemur -37.935 -8.07458 22.2827
rtibia 29.2594
rfoot -0.893893 -9.47421
rtoes 3.42663
lfemur -12.0339 3.06386 -17.5718
ltibia 29.7831
lfoot -16.1295 -1.38555
ltoes -16.7189
182
root 1.03417 17.937 -6.83328 14.0269 1.37432 -1.5578
lowerback 4.58769 1.58931 -5.45989
upperback 5.81887 1.9178 4.13073
thorax 3.16669 0.666835 7.36778
lowerneck -15.7534 0.0422659 0.13511
upperneck 38.1045 2.82897 -6.83909
head 16.4745 0.275382 -2.51582
rclavicle 6.75868e-015 -7.95139e-016
rhumerus -17.6257 5.96946 -82.0472
rradius 30.8477
rwrist -10.1613
rhand -26.6212 13.2031
rfingers 7.12502
rthumb -0.0542344 -16.7767
lclavicle 6.75868e-015 -7.95139e-016
lhumerus -26.8155 -37.026 96.8144
lradius 39.5914
lwrist -9.24667
lhand -11.7265 17.798
lfingers 7.12502
lthumb 14.3205 47.2841
rfemur -37.9586 -8.24315 22.408
rtibia 29.5547
rfoot -1.07068 -9.50591
rtoes 3.57824
lfemur -13.026 3.10721 -17.3242
ltibia 31.7425
lfoot -15.6337 -2.23452
ltoes -17.1782
183
root 0.995787 17.9406 -6.78015 14.1453 1.62137 -1.56808
lowerback 4.75496 1.62912 -5.39471
upperback 6.0478 1.9626 4.25326
thorax 3.30552 0.676909 7.46167
lowerneck -15.809 -0.0634427 0.022713
upperneck 37.9599 2.69288 -6.81853
head 16.4026 0.208603 -2.50383
rclavicle -6.75868e-015 -1.11319e-014
rhumerus -17.0093 5.91485 -81.8331
rradius 30.8879
rwrist -10.3866
rhand -26.5138 13.1454
rfingers 7.12502
rthumb 0.0494819 -16.8343
lclavicle -6.75868e-015 -1.11319e-014
lhumerus -26.4593 -38.3489 97.0196
lradius 39.8234
lwrist -9.68978
lhand -12.1857 17
lfingers 7.12502
lthumb 13.878 46.517
rfemur -38.0453 -8.36213 22.6009
rtibia 29.8076
rfoot -1.20152 -9.6076
rtoes 3.08111
lfemur -14.2166 3.27738 -16.9952
ltibia 33.8432
lfoot -15.0488 -3.18363
ltoes -18.6958
184
root 0.952461 17.9454 -6.72644 14.248 1.9045 -1.59058
lowerback 5.30511 1.58867 -5.15111
upperback 6.08506 1.89316 4.23329
thorax 3.0532 0.66047 7.28611
lowerneck -15.9298 -0.0673553 -0.0598192
upperneck 38.0168 2.65651 -6.65029
head 16.4552 0.202482 -2.42442
rclavicle 3.97569e-015 -7.95139e-015
rhumerus -16.6151 5.98306 -81.9669
rradius 30.8576
rwrist -10.4092
rhand -26.6373 13.3907
rfingers 7.12502
rthumb -0.0697967 -16.589
lclavicle 3.97569e-015 -7.95139e-015
lhumerus -26.3866 -39.4335 97.0532
lradius 40.1034
lwrist -9.98782
lhand -12.8743 15.884
lfingers 7.12502
lthumb 13.2143 45.4452
rfemur -38.1009 -8.42574 22.8138
rtibia 30.0548
rfoot -1.40364 -9.73668
rtoes 3.02598
lfemur -15.4909 3.61855 -16.605
ltibia 36.0803
lfoot -14.3591 -4.44501
ltoes -20.5756
185
root 0.906255 17.9518 -6.67674 14.3616 2.23326 -1.50952
lowerback 5.52635 1.5234 -5.48526
upperback 6.00867 1.78548 4.48126
thorax 2.85646 0.598583 7.74329
lowerneck -15.0794 -0.126852 -0.253776
upperneck 37.7552 2.62655 -6.74345
head 16.1073 0.168118 -2.41391
rclavicle -1.86858e-014 -4.29375e-014
rhumerus -16.6243 6.42168 -81.8
rradius 30.9437
rwrist -10.5585
rhand -26.7782 13.4949
rfingers 7.12502
rthumb -0.20582 -16.4847
lclavicle -1.86858e-014 -4.29375e-014
lhumerus -26.6949 -40.202 97.7122
lradius 40.3671
lwrist -10.0689
lhand -13.1704 15.0481
lfingers 7.12502
lthumb 12.929 44.6276
rfemur -38.1667 -8.45982 22.9028
rtibia 30.2934
rfoot -1.72899 -10.0355
rtoes 3.60095
lfemur -16.9309 3.9355 -16.3014
ltibia 38.4313
lfoot -13.2717 -6.00435
ltoes -21.3992
186
root 0.861319 17.9566 -6.63388 14.5077 2.57951 -1.39233
lowerback 5.95124 1.61057 -5.25151
upperback 6.46145 1.89154 4.40498
thorax 3.08518 0.639928 7.52098
lowerneck -16.0673 -0.267622 -0.178291
upperneck 37.6274 2.37574 -6.65061
head 16.2688 0.0750587 -2.43613
rclavicle 1.39149e-014 5.08889e-014
rhumerus -15.3811 6.11774 -81.7539
rradius 30.931
rwrist -10.6851
rhand -26.8562 13.4433
rfingers 7.12502
rthumb -0.281246 -16.5363
lclavicle 1.39149e-014 5.08889e-014
lhumerus -25.3719 -42.1749 97.0906
lradius 40.623
lwrist -9.66496
lhand -13.1475 14.5955
lfingers 7.12502
lthumb 12.951 44.1736
rfemur -38.2737 -8.462 22.9406
rtibia 30.5189
rfoot -1.6007 -10.1916
rtoes -0.551116
lfemur -18.5025 4.11339 -16.0297
ltibia 40.8363
lfoot -11.9914 -7.46131
ltoes -21.8266
187
root 0.821174 17.9595 -6.58749 14.6513 2.84352 -1.30585
lowerback 6.27535 1.62093 -5.21162
upperback 6.61954 1.89335 4.45044
thorax 3.07133 0.637308 7.54203
lowerneck -16.1116 -0.328314 -0.163334
upperneck 37.5148 2.28943 -6.68904
head 16.2174 0.0383594 -2.46611
rclavicle -2.66371e-014 -2.46493e-014
rhumerus -14.8185 6.37328 -81.6839
rradius 30.9313
rwrist -10.7216
rhand -27.1242 13.684
rfingers 7.12502
rthumb -0.540019 -16.2951
lclavicle -2.66371e-014 -2.46493e-014
lhumerus -24.9166 -43.4426 96.9943
lradius 40.9348
lwrist -10.0769
lhand -14.6179 13.3022
lfingers 7.12502
lthumb 11.5332 42.9649
rfemur -38.3684 -8.50898 23.0307
rtibia 30.7294
rfoot -1.20709 -10.0972
rtoes -7.11391
lfemur -20.0662 4.24696 -15.7399
ltibia 43.2336
lfoot -10.469 -8.85223
ltoes -21.4097
188
root 0.781459 17.9611 -6.53842 14.7451 3.09274 -1.3389
lowerback 6.56632 1.63968 -5.16079
upperback 6.84616 1.9061 4.6058
thorax 3.14504 0.632544 7.67783
lowerneck -16.2287 -0.408343 -0.324496
upperneck 37.3518 2.21404 -6.67802
head 16.1576 -0.0128677 -2.43923
rclavicle 2.50469e-014 7.95139e-016
rhumerus -14.1448 6.66531 -81.491
rradius 30.9171
rwrist -10.7122
rhand -27.4233 13.9709
rfingers 7.12502
rthumb -0.828923 -16.0073
lclavicle 2.50469e-014 7.95139e-016
lhumerus -24.1427 -44.2784 96.7094
lradius 41.0775
lwrist -11.3523
lhand -13.6944 13.3427
lfingers 7.12502
lthumb 12.4238 42.9534
rfemur -38.3903 -8.51034 23.2201
rtibia 30.9351
rfoot -1.52053 -10.5414
rtoes -6.12833
lfemur -21.6277 4.47577 -15.3191
ltibia 45.602
lfoot -8.37181 -10.2609
ltoes -17.5378
189
root 0.741661 17.9615 -6.49592 14.817 3.3296 -1.41978
lowerback 6.97764 1.67795 -5.03017
upperback 7.07094 1.94401 4.75816
thorax 3.1474 0.646536 7.75956
lowerneck -16.3098 -0.491269 -0.429254
upperneck 37.0578 2.14125 -6.75885
head 16.0251 -0.065503 -2.45593
rclavicle 9.54166e-015 4.77083e-015
rhumerus -13.4452 7.00196 -81.2976
rradius 30.9387
rwrist -10.8477
rhand -27.5108 14.1138
rfingers 7.12502
rthumb -0.913412 -15.864
lclavicle 9.54166e-015 4.77083e-015
lhumerus -23.2871 -45.1704 96.4241
lradius 41.0011
lwrist -11.9315
lhand -13.0851 13.3245
lfingers 7.12502
lthumb 13.0112 42.8988
rfemur -38.4288 -8.42766 23.4223
rtibia 31.1802
rfoot -2.29438 -11.2779
rtoes -0.334645
lfemur -23.2329 4.83408 -14.8803
ltibia 47.8913
lfoot -6.51013 -11.6076
ltoes -16.0188
190
root 0.703625 17.9573 -6.46228 14.9511 3.56382 -1.54582
lowerback 7.47533 1.71758 -4.81382
upperback 7.20878 1.98694 4.89345
thorax 3.01098 0.674959 7.76763
lowerneck -16.3443 -0.549425 -0.453942
upperneck 36.8069 2.09505 -6.87986
head 15.9067 -0.100946 -2.50101
rclavicle -3.22031e-014 -6.36111e-014
rhumerus -12.8485 7.36832 -81.1431
rradius 30.9834
rwrist -10.9218
rhand -27.5594 14.1489
rfingers 7.12502
rthumb -0.960372 -15.8287
lclavicle -3.22031e-014 -6.36111e-014
lhumerus -22.6973 -46.0599 96.215
lradius 41.1864
lwrist -12.0632
lhand -13.2553 13.0944
lfingers 7.12502
lthumb 12.8471 42.6791
rfemur -38.6071 -8.39186 23.7269
rtibia 31.4647
rfoot -2.79488 -11.7536
rtoes 3.10769
lfemur -24.9642 5.14967 -14.3966
ltibia 50.0634
lfoot -5.00181 -13.055
ltoes -16.1332
191
root 0.667793 17.9426 -6.43183 15.0701 3.78697 -1.61906
lowerback 8.05299 1.76495 -4.70258
upperback 7.32709 2.03532 5.05161
thorax 2.80724 0.704118 7.85847
lowerneck -16.3629 -0.60981 -0.53595
upperneck 36.5786 2.03698 -6.92679
head 15.7944 -0.139152 -2.50618
rclavicle -1.59028e-015 7.95139e-016
rhumerus -12.2487 7.84533 -80.9285
rradius 31.0187
rwrist -11.0768
rhand -27.6885 14.2014
rfingers 7.12502
rthumb -1.08507 -15.7756
lclavicle -1.59028e-015 7.95139e-016
lhumerus -22.197 -46.7681 95.989
lradius 41.6265
lwrist -12.4988
lhand -14.0833 12.836
lfingers 7.12502
lthumb 12.0488 42.4691
rfemur -38.8257 -8.50949 24.0311
rtibia 31.7814
rfoot -2.87784 -11.9407
rtoes 2.82355
lfemur -26.6293 5.31519 -13.9699
ltibia 52.0965
lfoot -3.80662 -14.1815
ltoes -15.7622
192
root 0.638066 17.9294 -6.39857 15.1575 3.98073 -1.63033
lowerback 8.63993 1.82858 -4.51495
upperback 7.48448 2.11132 5.12652
thorax 2.63968 0.749768 7.81314
lowerneck -16.3418 -0.682062 -0.464557
upperneck 36.1999 1.92533 -7.04836
head 15.5969 -0.186283 -2.57273
rclavicle 7.95139e-015 -8.74653e-015
rhumerus -11.6204 8.28799 -80.7391
rradius 31.0855
rwrist -11.3377
rhand -27.7859 14.3097
rfingers 7.12502
rthumb -1.17917 -15.6668
lclavicle 7.95139e-015 -8.74653e-015
lhumerus -21.5133 -47.7017 95.603
lradius 41.952
lwrist -12.6992
lhand -15.1216 12.4884
lfingers 7.12502
lthumb 11.0475 42.1777
rfemur -39.0126 -8.74312 24.2517
rtibia 32.1139
rfoot -2.91594 -11.9373
rtoes 1.5112
lfemur -28.1118 5.34816 -13.6832
ltibia 53.9457
lfoot -3.55146 -14.744
ltoes -17.4441
193
root 0.611825 17.923 -6.36742 15.2526 4.19643 -1.75991
lowerback 9.14217 1.84229 -4.19244
upperback 7.71039 2.13201 5.26205
thorax 2.60379 0.764859 7.76355
lowerneck -16.3927 -0.711569 -0.477847
upperneck 35.785 1.93132 -7.23897
head 15.4101 -0.206499 -2.63228
rclavicle 1.59028e-014 3.02153e-014
rhumerus -10.8898 8.94505 -80.4697
rradius 31.22
rwrist -11.4934
rhand -27.8918 14.3308
rfingers 7.12502
rthumb -1.28142 -15.6451
lclavicle 1.59028e-014 3.02153e-014
lhumerus -20.6004 -48.5394 95.0433
lradius 42.327
lwrist -12.832
lhand -15.7368 12.1381
lfingers 7.12502
lthumb 10.454 41.8582
rfemur -39.2141 -9.00474 24.6009
rtibia 32.4604
rfoot -3.2291 -11.9133
rtoes 1.84168
lfemur -29.5795 5.38531 -13.3233
ltibia 55.621
lfoot -4.15667 -14.9352
ltoes -20.1552
194
root 0.586396 17.9147 -6.34018 15.3231 4.38286 -1.91139
lowerback 9.63297 1.79767 -3.99203
upperback 8.01774 2.06841 5.50931
thorax 2.67155 0.723684 7.91724
lowerneck -16.5743 -0.721567 -0.858253
upperneck 35.3444 2.04075 -7.29704
head 15.2489 -0.217139 -2.55256
rclavicle -1.27222e-014 -1.35174e-014
rhumerus -9.90039 10.0589 -80.0302
rradius 31.2789
rwrist -11.5647
rhand -28.1891 14.27
rfingers 7.12502
rthumb -1.56852 -15.704
lclavicle -1.27222e-014 -1.35174e-014
lhumerus -19.5358 -48.9304 94.3973
lradius 42.8515
lwrist -13.2956
lhand -16.664 11.6892
lfingers 7.12502
lthumb 9.55954 41.4524
rfemur -39.4149 -9.27285 24.9952
rtibia 32.8109
rfoot -3.48876 -11.843
rtoes 1.73007
lfemur -31.0559 5.49563 -12.9662
ltibia 57.1228
lfoot -4.80006 -14.8654
ltoes -20.0548
